<?xml version="1.0" standalone="no"?>
<!DOCTYPE svg PUBLIC "-//W3C//DTD SVG 20010904//EN"
 "http://www.w3.org/TR/2001/REC-SVG-20010904/DTD/svg10.dtd">
<svg version="1.0" xmlns="http://www.w3.org/2000/svg"
 width="1260.000000pt" height="662.000000pt" viewBox="0 0 1260.000000 662.000000"
 preserveAspectRatio="xMidYMid meet">

<g transform="translate(0.000000,662.000000) scale(0.100000,-0.100000)"
fill="#000000" stroke="none">
<path d="M12365 4048 c-2 -7 -9 -31 -14 -53 -20 -80 -37 -134 -44 -141 -4 -4
-7 -14 -7 -22 0 -17 -31 -85 -42 -93 -5 -3 -2 -11 6 -18 16 -13 18 -9 31 57 4
17 10 32 14 32 4 0 16 26 27 58 10 31 22 60 26 63 5 3 14 29 20 57 7 29 18 52
25 52 7 0 13 5 13 10 0 15 -50 12 -55 -2z"/>
<path d="M11330 3850 c-8 -5 -31 -10 -51 -10 -19 0 -44 -7 -55 -15 -17 -13
-14 -14 39 -15 41 0 57 -4 57 -14 0 -7 3 -29 6 -47 4 -26 3 -30 -5 -19 -8 11
-9 3 -5 -32 4 -26 2 -60 -4 -75 -6 -16 -18 -63 -28 -106 -10 -44 -23 -81 -31
-84 -18 -7 -17 -23 2 -23 19 0 19 -5 -1 -66 -21 -62 -40 -84 -73 -84 -19 0
-22 -3 -13 -12 10 -10 110 -13 120 -3 2 2 -2 13 -8 25 -12 22 -5 66 26 170 7
25 18 77 24 115 7 39 18 87 26 108 8 20 14 50 14 65 0 15 5 33 12 40 9 9 8 17
-2 37 -12 22 -11 27 6 40 18 14 17 14 -11 15 -16 0 -37 -5 -45 -10z"/>
<path d="M11075 3800 c-3 -5 1 -10 9 -10 9 0 16 5 16 10 0 6 -4 10 -9 10 -6 0
-13 -4 -16 -10z"/>
<path d="M11000 3791 c-18 -5 -21 -9 -12 -15 11 -6 10 -13 -2 -32 -9 -13 -16
-35 -16 -49 0 -14 -4 -25 -8 -25 -11 0 -32 -113 -23 -123 4 -4 24 8 43 26 33
31 36 37 32 83 -2 27 -1 41 2 32 10 -33 20 -18 30 47 10 71 10 72 -46 56z"/>
<path d="M11590 3697 c0 -19 16 -31 24 -18 3 5 -1 14 -9 21 -12 10 -15 10 -15
-3z"/>
<path d="M12041 3683 c-9 -7 -40 -13 -68 -13 -29 0 -53 -4 -53 -9 0 -12 28
-22 34 -12 3 4 39 11 80 14 93 7 129 23 67 29 -25 2 -50 -1 -60 -9z"/>
<path d="M10475 3675 c21 -17 37 -15 43 3 2 8 -8 12 -30 12 -31 -1 -32 -1 -13
-15z"/>
<path d="M12170 3680 c0 -5 18 -10 40 -10 38 0 40 -2 40 -29 0 -16 6 -31 13
-34 8 -2 11 -22 10 -60 -3 -59 6 -70 34 -41 12 11 13 18 4 27 -6 6 -11 20 -11
31 0 11 -6 44 -12 73 l-13 53 -52 0 c-29 0 -53 -4 -53 -10z"/>
<path d="M10338 3663 c-16 -4 -33 -32 -24 -40 2 -3 14 5 26 17 16 16 30 21 49
17 15 -3 33 -2 41 4 16 9 -58 11 -92 2z"/>
<path d="M11543 3645 c2 -21 47 -36 47 -16 0 6 -9 11 -19 11 -11 0 -22 6 -25
13 -3 6 -5 3 -3 -8z"/>
<path d="M11597 3623 c-14 -14 -6 -33 14 -33 25 0 79 -30 79 -44 0 -5 11 4 25
20 28 32 19 52 -15 32 -18 -10 -24 -10 -27 0 -3 6 -13 12 -23 12 -10 0 -22 5
-25 10 -7 12 -19 13 -28 3z"/>
<path d="M12172 3610 c0 -14 2 -19 5 -12 2 6 2 18 0 25 -3 6 -5 1 -5 -13z"/>
<path d="M10436 3605 c-4 -13 -13 -15 -36 -10 -23 5 -32 3 -36 -10 -9 -23 4
-31 26 -17 32 20 50 15 50 -14 0 -21 4 -25 23 -22 18 2 23 10 25 41 2 20 -1
37 -7 37 -5 0 -16 3 -24 6 -8 3 -17 -2 -21 -11z"/>
<path d="M10161 3574 c0 -11 3 -14 6 -6 3 7 2 16 -1 19 -3 4 -6 -2 -5 -13z"/>
<path d="M12160 3551 c0 -6 5 -13 10 -16 6 -3 10 1 10 9 0 9 -4 16 -10 16 -5
0 -10 -4 -10 -9z"/>
<path d="M9740 3515 c0 -14 4 -25 9 -25 5 0 11 11 13 25 4 17 1 25 -8 25 -8 0
-14 -11 -14 -25z"/>
<path d="M10410 3514 c0 -8 5 -12 10 -9 6 3 10 10 10 16 0 5 -4 9 -10 9 -5 0
-10 -7 -10 -16z"/>
<path d="M10130 3500 c0 -5 5 -10 10 -10 6 0 10 5 10 10 0 6 -4 10 -10 10 -5
0 -10 -4 -10 -10z"/>
<path d="M10560 3499 c0 -5 5 -7 10 -4 6 3 10 8 10 11 0 2 -4 4 -10 4 -5 0
-10 -5 -10 -11z"/>
<path d="M12380 3490 c-13 -8 -12 -10 3 -10 9 0 17 5 17 10 0 12 -1 12 -20 0z"/>
<path d="M10931 3474 c0 -11 3 -14 6 -6 3 7 2 16 -1 19 -3 4 -6 -2 -5 -13z"/>
<path d="M9371 3470 c-19 -11 5 -23 25 -12 14 8 14 10 2 15 -8 3 -21 2 -27 -3z"/>
<path d="M10626 3470 c-2 -8 -7 -44 -10 -80 -5 -62 -7 -76 -22 -144 -4 -15 -1
-53 6 -83 13 -51 14 -53 26 -31 7 12 10 26 7 31 -9 14 7 74 25 95 9 11 26 22
37 24 16 3 11 7 -18 18 l-39 15 6 70 c4 40 2 76 -3 85 -9 13 -11 13 -15 0z"/>
<path d="M12322 3398 c0 -51 1 -58 9 -39 5 14 8 30 5 38 -8 21 9 23 22 2 7
-11 8 -19 2 -19 -5 0 -10 -9 -10 -20 0 -11 5 -20 10 -20 6 0 10 5 10 10 0 6 7
10 15 10 8 0 15 5 15 10 0 6 -6 10 -12 10 -8 0 -9 3 -3 8 12 9 15 52 3 53 -4
1 -12 2 -17 3 -5 0 -13 4 -17 9 -22 21 -32 4 -32 -55z"/>
<path d="M10895 3390 c-3 -5 1 -10 9 -10 9 0 16 5 16 10 0 6 -4 10 -9 10 -6 0
-13 -4 -16 -10z"/>
<path d="M8870 3374 l-45 -12 36 -1 c31 -1 38 -5 43 -26 9 -34 25 -32 32 5 4
19 15 32 33 39 24 9 23 9 -14 9 -22 0 -60 -6 -85 -14z"/>
<path d="M10177 3363 c-4 -3 -7 -16 -7 -29 0 -23 16 -34 38 -26 18 6 15 42 -4
42 -8 0 -12 5 -9 10 7 11 -8 14 -18 3z"/>
<path d="M9290 3319 c0 -7 -12 -9 -35 -5 -19 4 -35 5 -35 3 0 -2 16 -20 35
-40 l35 -36 6 27 c3 15 8 35 11 45 2 9 0 17 -6 17 -6 0 -11 -5 -11 -11z"/>
<path d="M8515 3300 c3 -5 12 -10 20 -10 8 0 17 5 20 10 4 6 -5 10 -20 10 -15
0 -24 -4 -20 -10z"/>
<path d="M12400 3300 c0 -5 5 -10 11 -10 5 0 7 5 4 10 -3 6 -8 10 -11 10 -2 0
-4 -4 -4 -10z"/>
<path d="M9764 3263 c14 -15 28 -25 30 -22 9 9 -24 49 -40 49 -11 0 -8 -8 10
-27z"/>
<path d="M10810 3272 c0 -13 156 -35 187 -27 24 7 17 10 -47 21 -89 15 -140
17 -140 6z"/>
<path d="M8930 3235 c0 -18 5 -25 20 -25 11 0 20 2 20 5 0 3 -9 14 -20 25
l-20 20 0 -25z"/>
<path d="M10044 3245 c-4 -8 -12 -15 -20 -15 -8 0 -14 -4 -14 -10 0 -5 -11
-10 -24 -10 -13 0 -26 -6 -28 -12 -3 -9 -25 -13 -64 -13 l-59 0 3 -32 4 -33
28 20 c16 11 40 20 54 20 59 0 146 52 146 87 0 18 -19 17 -26 -2z"/>
<path d="M11040 3250 c0 -13 50 -13 70 0 11 7 4 10 -27 10 -24 0 -43 -4 -43
-10z"/>
<path d="M9341 3200 c13 -11 36 -30 51 -43 15 -12 42 -35 59 -50 25 -21 34
-25 40 -15 13 20 11 25 -21 38 -16 7 -30 16 -30 21 0 5 -7 9 -15 9 -8 0 -15 4
-15 10 0 5 -11 12 -25 16 -14 3 -25 12 -25 20 0 8 -10 14 -22 14 -21 0 -21 0
3 -20z"/>
<path d="M11320 3212 c0 -5 27 -36 60 -70 32 -34 72 -79 88 -101 25 -34 30
-37 39 -22 11 17 -5 41 -27 41 -5 0 -10 5 -10 12 0 11 -134 148 -145 148 -3 0
-5 -4 -5 -8z"/>
<path d="M12416 3195 c-11 -8 -15 -15 -9 -15 7 0 13 -12 15 -27 2 -14 9 -28
17 -31 9 -3 11 1 7 16 -9 28 20 55 52 47 22 -5 23 -4 9 10 -19 19 -66 19 -91
0z"/>
<path d="M12323 3135 c0 -33 2 -45 4 -27 2 18 2 45 0 60 -2 15 -4 0 -4 -33z"/>
<path d="M8960 3170 c0 -5 7 -10 16 -10 8 0 12 5 9 10 -3 6 -10 10 -16 10 -5
0 -9 -4 -9 -10z"/>
<path d="M9030 3147 c27 -15 36 -14 25 2 -3 6 -16 11 -28 11 -21 0 -21 -1 3
-13z"/>
<path d="M7980 3126 c0 -7 7 -19 15 -26 16 -13 20 -3 9 24 -8 20 -24 21 -24 2z"/>
<path d="M12390 3109 c0 -18 2 -19 15 -5 8 8 15 17 15 20 0 3 -7 6 -15 6 -9 0
-15 -9 -15 -21z"/>
<path d="M10023 3083 c-18 -6 -16 -43 1 -43 16 0 30 30 19 40 -4 4 -14 5 -20
3z"/>
<path d="M10610 3045 c0 -33 -2 -35 -34 -35 -18 0 -55 -10 -82 -22 -27 -12
-62 -25 -79 -29 -20 -5 -11 -6 25 -3 30 4 59 10 65 15 5 5 19 9 31 9 13 0 26
5 29 10 3 6 17 10 31 10 21 0 24 4 24 40 0 22 -2 40 -5 40 -3 0 -5 -16 -5 -35z"/>
<path d="M11920 3070 c0 -5 7 -10 16 -10 8 0 12 5 9 10 -3 6 -10 10 -16 10 -5
0 -9 -4 -9 -10z"/>
<path d="M12070 3069 c0 -11 54 -39 76 -39 9 0 35 -14 58 -31 23 -16 63 -43
89 -60 53 -32 94 -102 82 -139 -8 -24 10 -26 32 -4 12 12 13 20 4 37 -11 23
-11 44 2 65 5 7 3 12 -7 12 -8 0 -20 16 -27 35 -13 36 -39 48 -39 19 0 -23
-44 -11 -78 21 -40 37 -192 104 -192 84z"/>
<path d="M8130 3046 c0 -24 -22 -31 -36 -11 -12 16 -14 16 -36 -6 -13 -13 -32
-24 -42 -24 -21 0 -22 -2 -61 -90 -14 -33 -31 -68 -36 -78 -12 -21 -2 -60 12
-51 14 8 -1 -49 -15 -58 -6 -4 -15 -3 -21 2 -17 14 -32 -1 -43 -44 l-11 -38
35 6 c27 6 34 4 34 -9 0 -16 20 -19 57 -9 27 8 52 62 33 74 -14 9 -5 30 14 30
6 0 16 15 21 33 8 26 15 32 35 30 14 -1 18 0 8 3 -10 3 -18 10 -18 15 0 5 -9
9 -19 9 -29 0 -30 20 -4 78 13 31 18 52 12 52 -8 0 -7 5 1 15 16 19 25 19 43
1 12 -13 16 -12 27 9 7 13 20 24 29 23 9 -1 25 0 35 0 17 2 16 5 -8 27 -31 28
-46 32 -46 11z"/>
<path d="M8300 3057 c0 -2 9 -14 20 -27 22 -25 26 -20 10 11 -9 16 -30 27 -30
16z"/>
<path d="M12330 3028 c0 -7 5 -20 10 -28 8 -12 10 -9 10 13 0 15 -4 27 -10 27
-5 0 -10 -6 -10 -12z"/>
<path d="M12430 3010 c0 -16 -4 -30 -10 -30 -5 0 -10 -4 -10 -8 0 -9 71 -34
78 -27 2 2 -3 16 -12 32 -8 15 -18 36 -22 46 -10 27 -24 20 -24 -13z"/>
<path d="M7100 3025 c0 -8 32 -57 52 -79 10 -11 17 -26 16 -34 -2 -8 7 -18 20
-23 l24 -9 -23 38 c-13 20 -33 50 -46 65 -13 16 -23 33 -23 38 0 5 -4 9 -10 9
-5 0 -10 -2 -10 -5z"/>
<path d="M8258 3004 c-4 -3 -13 -6 -21 -8 -19 -2 -47 -31 -68 -70 -10 -20 -27
-33 -45 -37 -22 -5 -24 -7 -8 -8 15 -1 24 -10 28 -27 6 -21 9 -24 21 -14 22
19 45 4 44 -27 0 -15 -3 -22 -6 -15 -7 17 -40 15 -47 -4 -3 -9 -13 -14 -21
-11 -8 4 -22 -5 -34 -21 -13 -17 -21 -22 -21 -12 0 13 -1 13 -10 0 -14 -22
-12 -90 3 -90 6 0 1 -9 -12 -19 -19 -15 -21 -20 -10 -27 8 -5 14 -16 14 -24 0
-9 8 -14 20 -12 13 1 24 -6 30 -20 8 -16 25 -25 70 -34 78 -16 75 -17 75 2 0
13 7 15 33 10 17 -4 34 -11 35 -16 9 -24 72 0 72 28 0 12 44 52 58 52 11 0 42
38 42 52 0 5 -11 8 -24 8 -19 0 -36 16 -36 35 0 2 14 6 31 10 29 7 30 9 24 41
-3 21 -2 34 5 34 5 0 10 7 10 15 0 8 -6 15 -14 15 -8 0 -17 7 -20 16 -3 8 -14
14 -23 12 -10 -2 -32 12 -50 30 l-34 33 -19 -23 -19 -23 -1 23 c0 12 -7 25
-15 28 -8 4 -15 15 -15 26 0 11 -8 22 -20 25 -20 5 -29 33 -10 33 6 0 10 5 10
10 0 11 -13 13 -22 4z m-28 -80 c0 -8 4 -14 9 -14 5 0 11 -7 15 -15 8 -21 -14
-18 -43 5 -13 12 -21 26 -17 35 6 18 36 9 36 -11z m154 -110 c9 -24 7 -34 -7
-34 -19 0 -36 20 -30 36 7 19 29 18 37 -2z m-110 -23 c3 -5 0 -14 -8 -20 -10
-8 -16 -8 -25 3 -9 11 -9 15 1 19 20 8 26 8 32 -2z m186 -16 c0 -8 -4 -15 -10
-15 -5 0 -10 7 -10 15 0 8 5 15 10 15 6 0 10 -7 10 -15z m-310 -45 c4 0 10
-10 12 -23 3 -17 -2 -26 -18 -34 -25 -12 -34 -1 -34 41 0 28 23 55 28 32 2 -9
7 -16 12 -16z m85 -59 c3 -5 1 -12 -5 -16 -5 -3 -10 1 -10 9 0 18 6 21 15 7z
m245 -31 c0 -5 -4 -10 -10 -10 -5 0 -10 5 -10 10 0 6 5 10 10 10 6 0 10 -4 10
-10z m-274 -107 c-10 -10 -19 5 -10 18 6 11 8 11 12 0 2 -7 1 -15 -2 -18z"/>
<path d="M12584 2959 c-3 -6 -1 -16 5 -22 8 -8 11 -5 11 11 0 24 -5 28 -16 11z"/>
<path d="M6676 2885 c6 -85 24 -128 24 -58 0 22 3 55 7 73 4 24 3 31 -6 26 -7
-4 -15 2 -21 16 -7 17 -9 1 -4 -57z"/>
<path d="M9590 2945 c0 -8 5 -15 10 -15 6 0 10 7 10 15 0 8 -4 15 -10 15 -5 0
-10 -7 -10 -15z"/>
<path d="M8348 2943 c-28 -7 -21 -21 7 -15 14 2 22 8 19 13 -3 5 -6 8 -7 8 -1
-1 -10 -3 -19 -6z"/>
<path d="M11450 2933 c0 -10 -7 -31 -15 -47 -8 -15 -15 -33 -15 -40 1 -18 30
26 30 46 0 10 5 18 10 18 6 0 10 9 10 20 0 11 -4 20 -10 20 -5 0 -10 -8 -10
-17z"/>
<path d="M9911 2924 c0 -11 3 -14 6 -6 3 7 2 16 -1 19 -3 4 -6 -2 -5 -13z"/>
<path d="M10285 2920 c-3 -5 3 -10 14 -10 12 0 21 5 21 10 0 6 -6 10 -14 10
-8 0 -18 -4 -21 -10z"/>
<path d="M10620 2855 c0 -43 4 -75 10 -75 6 0 10 -7 10 -15 0 -8 7 -15 15 -15
18 0 18 8 0 40 -8 14 -14 51 -15 83 0 31 -4 57 -10 57 -6 0 -10 -32 -10 -75z"/>
<path d="M9564 2872 c-27 -61 -46 -175 -34 -205 7 -18 9 -12 9 25 1 26 6 50
11 53 6 3 10 17 10 30 0 13 7 45 16 70 22 66 13 85 -12 27z"/>
<path d="M9760 2906 c0 -2 9 -6 20 -9 11 -3 20 -1 20 4 0 5 -9 9 -20 9 -11 0
-20 -2 -20 -4z"/>
<path d="M10240 2900 c0 -5 7 -7 15 -4 8 4 15 8 15 10 0 2 -7 4 -15 4 -8 0
-15 -4 -15 -10z"/>
<path d="M7868 2864 c-10 -19 -18 -46 -18 -59 0 -14 -4 -25 -10 -25 -5 0 -10
-16 -10 -35 0 -19 -4 -35 -8 -35 -4 0 -8 -8 -9 -17 -1 -10 -5 -29 -9 -43 -7
-23 -6 -24 9 -11 9 7 17 21 17 31 0 10 7 31 15 46 8 16 15 44 15 62 0 17 4 32
9 32 7 0 24 81 18 86 -1 1 -10 -13 -19 -32z"/>
<path d="M12592 2880 c0 -14 2 -19 5 -12 2 6 2 18 0 25 -3 6 -5 1 -5 -13z"/>
<path d="M7608 2883 c7 -3 16 -2 19 1 4 3 -2 6 -13 5 -11 0 -14 -3 -6 -6z"/>
<path d="M10098 2883 c-22 -6 -23 -19 -2 -27 23 -9 64 4 64 20 0 14 -26 17
-62 7z"/>
<path d="M10198 2883 c7 -3 16 -2 19 1 4 3 -2 6 -13 5 -11 0 -14 -3 -6 -6z"/>
<path d="M7650 2870 c0 -6 7 -10 15 -10 8 0 15 2 15 4 0 2 -7 6 -15 10 -8 3
-15 1 -15 -4z"/>
<path d="M7723 2853 c9 -2 23 -2 30 0 6 3 -1 5 -18 5 -16 0 -22 -2 -12 -5z"/>
<path d="M9380 2810 c0 -5 5 -10 11 -10 5 0 7 5 4 10 -3 6 -8 10 -11 10 -2 0
-4 -4 -4 -10z"/>
<path d="M7347 2741 c17 -16 33 -36 36 -43 2 -7 8 -10 12 -5 10 8 -30 54 -60
69 -12 6 -8 -2 12 -21z"/>
<path d="M6650 2741 c0 -6 -7 -11 -15 -11 -11 0 -15 -10 -14 -37 2 -27 3 -30
6 -13 2 14 14 30 26 35 12 6 21 14 20 20 -2 14 -23 19 -23 6z"/>
<path d="M8545 2730 c3 -5 8 -10 11 -10 2 0 4 5 4 10 0 6 -5 10 -11 10 -5 0
-7 -4 -4 -10z"/>
<path d="M10753 2675 c20 -20 37 -44 37 -54 0 -14 6 -17 24 -14 15 3 35 -3 54
-17 17 -12 35 -19 42 -15 13 8 -16 34 -37 35 -7 0 -21 8 -31 18 -33 31 -62 52
-71 52 -5 0 -14 7 -21 15 -7 8 -18 15 -24 15 -6 0 6 -16 27 -35z"/>
<path d="M11376 2694 c-9 -9 -22 -17 -29 -18 -24 -3 -37 -18 -37 -42 0 -17 5
-24 20 -24 13 0 20 7 20 19 0 55 74 29 124 -43 22 -32 52 -61 72 -71 46 -21
67 -14 29 10 -44 28 -145 135 -151 162 -7 27 -26 30 -48 7z"/>
<path d="M8510 2681 c0 -25 6 -27 13 -6 4 8 2 17 -3 20 -6 4 -10 -3 -10 -14z"/>
<path d="M12086 2635 c-11 -8 -16 -18 -13 -22 8 -8 57 17 57 29 0 13 -23 9
-44 -7z"/>
<path d="M11190 2570 c0 -5 14 -19 30 -32 18 -13 34 -37 40 -58 5 -20 18 -45
28 -55 10 -11 33 -51 52 -90 19 -38 38 -71 43 -73 4 -2 7 -12 7 -22 0 -10 4
-21 9 -24 13 -9 22 -68 12 -80 -14 -17 48 -136 72 -136 19 0 18 4 -15 52 -12
18 -18 44 -18 85 0 32 -7 71 -15 87 -8 15 -15 32 -15 37 0 5 -22 46 -50 90
-27 44 -50 84 -50 87 0 4 -11 29 -25 56 -14 27 -25 58 -25 68 0 14 -8 18 -40
18 -22 0 -40 -4 -40 -10z"/>
<path d="M11908 2553 c-10 -2 -18 -9 -18 -14 0 -5 -6 -9 -14 -9 -7 0 -19 -7
-26 -15 -17 -20 0 -19 44 3 20 9 36 23 36 30 0 6 -1 11 -2 11 -2 -1 -11 -3
-20 -6z"/>
<path d="M8411 2521 c-10 -18 -6 -31 10 -31 3 0 9 11 11 25 6 29 -7 33 -21 6z"/>
<path d="M8891 2517 c-6 -16 -10 -43 -10 -60 1 -27 2 -28 6 -7 2 14 9 35 15
47 5 11 8 27 5 35 -3 8 -9 2 -16 -15z"/>
<path d="M9812 2520 c0 -14 2 -19 5 -12 2 6 2 18 0 25 -3 6 -5 1 -5 -13z"/>
<path d="M10591 2481 c-1 -28 3 -41 8 -35 6 5 6 24 1 44 l-8 35 -1 -44z"/>
<path d="M8280 2505 c0 -3 5 -27 12 -53 11 -42 13 -45 19 -22 12 43 10 59 -11
70 -11 6 -20 8 -20 5z"/>
<path d="M9512 2470 c0 -14 2 -19 5 -12 2 6 2 18 0 25 -3 6 -5 1 -5 -13z"/>
<path d="M9705 2450 c-16 -16 -24 -30 -17 -30 18 0 92 41 92 51 0 20 -48 7
-75 -21z"/>
<path d="M9787 2466 c-4 -10 -1 -16 7 -16 7 0 27 -7 44 -16 36 -17 60 -11 41
12 -6 8 -23 14 -38 14 -15 0 -32 5 -38 11 -7 7 -12 6 -16 -5z"/>
<path d="M11655 2449 c-12 -18 3 -22 20 -5 14 14 14 16 1 16 -8 0 -18 -5 -21
-11z"/>
<path d="M9510 2417 c0 -22 22 -38 36 -26 11 9 11 14 -1 25 -17 18 -35 18 -35
1z"/>
<path d="M8900 2395 c0 -8 5 -15 10 -15 6 0 10 7 10 15 0 8 -4 15 -10 15 -5 0
-10 -7 -10 -15z"/>
<path d="M10830 2394 c0 -8 5 -12 10 -9 6 3 10 10 10 16 0 5 -4 9 -10 9 -5 0
-10 -7 -10 -16z"/>
<path d="M10991 2374 c0 -11 3 -14 6 -6 3 7 2 16 -1 19 -3 4 -6 -2 -5 -13z"/>
<path d="M7401 2344 c0 -11 3 -14 6 -6 3 7 2 16 -1 19 -3 4 -6 -2 -5 -13z"/>
<path d="M7772 2349 c-1 -9 -5 -32 -8 -50 -5 -26 -4 -31 5 -23 7 7 11 28 8 50
-2 22 -4 32 -5 23z"/>
<path d="M6518 2321 c-14 -17 -14 -22 -2 -40 11 -15 13 -36 8 -86 -4 -36 -11
-65 -15 -65 -5 0 -9 -21 -9 -46 0 -25 -4 -53 -9 -62 -12 -23 31 -76 48 -59 6
6 11 16 11 23 0 6 7 14 15 18 11 4 15 19 13 53 l-1 48 -4 -45 c-5 -48 -15 -60
-50 -60 -26 0 -30 22 -8 40 8 7 15 28 15 46 0 28 5 35 25 40 27 7 34 24 10 24
-11 0 -15 11 -15 36 0 28 3 35 15 30 19 -7 20 18 1 33 -21 17 -26 60 -9 77 13
12 12 14 -4 14 -10 0 -26 -9 -35 -19z"/>
<path d="M10970 2321 c0 -11 -8 -33 -17 -49 -14 -25 -15 -34 -5 -54 6 -12 13
-57 15 -98 3 -66 3 -63 5 27 1 56 7 105 12 108 6 3 10 24 10 46 0 21 -4 39
-10 39 -5 0 -10 -9 -10 -19z"/>
<path d="M10110 2259 c0 -47 1 -49 16 -34 14 14 15 20 4 40 -7 13 -9 28 -6 34
4 6 2 11 -3 11 -6 0 -11 -22 -11 -51z"/>
<path d="M10333 2303 c9 -2 23 -2 30 0 6 3 -1 5 -18 5 -16 0 -22 -2 -12 -5z"/>
<path d="M12563 2238 c-6 -7 -13 -46 -17 -87 l-6 -74 19 24 c18 22 20 22 26 6
4 -9 1 -24 -6 -33 -9 -11 -12 -47 -9 -132 3 -107 3 -151 0 -184 -1 -7 2 -39 6
-70 6 -55 6 -58 -15 -58 -22 0 -22 0 5 -46 26 -45 27 -48 18 -147 -10 -118
-10 -490 1 -559 4 -28 3 -61 -4 -79 -7 -21 -7 -37 0 -50 7 -13 6 -32 -1 -59
-7 -25 -8 -93 -3 -192 15 -319 22 -59 22 840 1 768 -1 912 -13 912 -7 0 -18
-6 -23 -12z"/>
<path d="M10097 2113 c-5 -10 -18 -94 -22 -145 -4 -45 20 -54 29 -10 13 68 17
162 7 162 -5 0 -12 -3 -14 -7z"/>
<path d="M7830 2076 c0 -14 -4 -27 -10 -31 -5 -3 -7 -12 -3 -21 4 -11 9 -8 19
12 16 31 18 64 4 64 -5 0 -10 -11 -10 -24z"/>
<path d="M8030 2090 c0 -5 17 -10 38 -10 27 0 33 3 22 10 -20 13 -60 13 -60 0z"/>
<path d="M8235 2089 c-16 -6 -14 -8 13 -8 33 -1 41 4 20 12 -7 2 -22 1 -33 -4z"/>
<path d="M10671 2017 c5 -23 11 -59 15 -79 7 -41 18 -48 33 -21 6 12 5 20 -6
28 -8 6 -17 32 -20 58 -3 25 -11 48 -18 51 -9 3 -10 -6 -4 -37z"/>
<path d="M11393 2018 c3 -20 3 -39 -1 -41 -4 -2 -1 -2 6 0 8 1 23 3 35 3 20 1
21 2 5 14 -10 7 -18 18 -18 23 0 6 -7 17 -17 24 -15 13 -16 11 -10 -23z"/>
<path d="M11910 2040 c-8 -5 -67 -10 -131 -10 -88 0 -119 -3 -128 -14 -10 -12
-2 -15 51 -18 35 -2 73 0 86 4 13 4 54 8 92 8 49 0 69 4 73 14 10 25 -15 34
-43 16z"/>
<path d="M8640 2031 c0 -6 5 -13 10 -16 6 -3 10 1 10 9 0 9 -4 16 -10 16 -5 0
-10 -4 -10 -9z"/>
<path d="M11978 2033 c7 -3 16 -2 19 1 4 3 -2 6 -13 5 -11 0 -14 -3 -6 -6z"/>
<path d="M10970 1995 c0 -8 -8 -15 -17 -15 -26 0 -84 -23 -80 -33 3 -11 9 -11
67 4 42 11 50 17 50 36 0 13 -4 23 -10 23 -5 0 -10 -7 -10 -15z"/>
<path d="M11158 2003 c12 -2 30 -2 40 0 9 3 -1 5 -23 4 -22 0 -30 -2 -17 -4z"/>
<path d="M11550 1990 c0 -5 7 -10 16 -10 8 0 12 5 9 10 -3 6 -10 10 -16 10 -5
0 -9 -4 -9 -10z"/>
<path d="M6880 1935 c0 -22 8 -49 16 -60 15 -19 16 -17 9 30 -9 64 -25 83 -25
30z"/>
<path d="M10750 1940 c-12 -8 -10 -10 8 -10 13 0 20 4 17 10 -7 12 -6 12 -25
0z"/>
<path d="M6580 1915 c0 -8 5 -15 10 -15 6 0 10 7 10 15 0 8 -4 15 -10 15 -5 0
-10 -7 -10 -15z"/>
<path d="M8674 1914 c3 -9 6 -45 6 -80 0 -52 3 -64 16 -64 14 0 15 9 9 63 -8
77 -14 97 -27 97 -5 0 -7 -7 -4 -16z"/>
<path d="M9110 1921 c0 -5 7 -11 14 -14 10 -4 13 -1 9 9 -6 15 -23 19 -23 5z"/>
<path d="M10160 1920 c0 -5 11 -12 25 -16 24 -6 37 -44 15 -44 -5 0 -10 -10
-10 -23 0 -13 -5 -28 -12 -35 -6 -6 -9 -15 -5 -18 10 -10 37 23 37 45 0 11 4
22 9 25 12 8 63 -11 76 -28 19 -25 98 -76 117 -76 15 0 10 8 -21 39 -22 22
-61 54 -86 71 -25 17 -45 35 -45 40 0 10 -55 30 -81 30 -11 0 -19 -4 -19 -10z"/>
<path d="M11908 1920 c-4 -8 -9 -39 -12 -67 -5 -55 7 -71 24 -30 5 12 20 35
34 51 38 42 35 50 -5 15 l-24 -21 -6 34 c-3 20 -8 27 -11 18z"/>
<path d="M6495 1897 c-12 -14 -20 -17 -23 -9 -9 28 -22 9 -22 -33 0 -25 5 -45
10 -45 6 0 10 8 10 18 0 18 33 52 50 52 12 0 13 27 2 34 -5 3 -17 -5 -27 -17z"/>
<path d="M8883 1893 c-11 -10 -22 -22 -24 -28 -12 -29 -56 -85 -66 -85 -9 0
-13 -20 -13 -64 0 -42 -4 -65 -12 -68 -19 -7 -38 2 -38 18 0 8 -7 14 -15 14
-8 0 -15 -6 -15 -13 0 -21 -53 -86 -71 -87 -9 0 -22 -11 -29 -25 -7 -14 -17
-25 -21 -25 -5 0 -19 -11 -33 -25 -14 -14 -30 -25 -36 -25 -5 0 -10 -5 -10
-10 0 -6 -18 -18 -40 -27 -22 -10 -40 -23 -40 -30 0 -20 23 -15 50 10 14 12
43 36 65 52 22 17 49 38 59 48 11 9 24 17 28 17 5 0 21 12 36 28 30 31 73 62
84 62 5 0 9 -30 10 -67 1 -50 2 -56 5 -23 5 73 12 90 33 90 13 0 20 7 20 19 0
28 11 52 21 45 5 -3 9 2 9 10 0 10 -6 13 -15 10 -11 -5 -15 1 -15 25 0 37 30
74 52 66 9 -4 19 -1 24 6 4 7 3 14 -4 17 -8 2 -8 10 0 28 9 19 18 24 35 21 19
-3 21 -1 12 14 -12 24 -21 24 -46 2z"/>
<path d="M7065 1870 c3 -5 8 -10 11 -10 2 0 4 5 4 10 0 6 -5 10 -11 10 -5 0
-7 -4 -4 -10z"/>
<path d="M7754 1853 c-3 -16 -14 -47 -25 -70 -10 -23 -21 -61 -25 -85 -3 -24
-10 -53 -16 -65 -8 -17 -7 -25 5 -38 18 -18 19 -15 56 150 11 50 23 100 27
113 4 13 2 22 -5 22 -6 0 -13 -12 -17 -27z"/>
<path d="M9235 1800 c5 -82 8 -100 18 -101 10 0 57 37 57 46 0 10 -27 35 -38
35 -9 0 -28 34 -36 65 -3 11 -3 -9 -1 -45z"/>
<path d="M9031 1824 c0 -11 3 -14 6 -6 3 7 2 16 -1 19 -3 4 -6 -2 -5 -13z"/>
<path d="M6477 1813 c-2 -10 -8 -26 -12 -35 -4 -11 -3 -18 4 -18 6 0 11 5 11
12 0 6 10 22 22 35 21 23 21 23 1 23 -11 0 -23 -8 -26 -17z"/>
<path d="M9660 1821 c0 -5 -8 -12 -17 -14 -16 -4 -16 -5 1 -6 13 -1 16 -6 11
-18 -11 -29 -16 -123 -6 -123 5 0 12 30 16 68 4 37 9 75 11 85 3 9 1 17 -5 17
-6 0 -11 -4 -11 -9z"/>
<path d="M11529 1776 c-9 -17 -26 -36 -38 -42 -38 -19 -48 -34 -24 -34 11 0
23 7 27 15 3 8 16 15 30 15 19 0 25 6 28 30 7 44 -5 52 -23 16z"/>
<path d="M8973 1784 c-21 -21 4 -64 36 -64 l26 0 -22 18 c-12 9 -23 27 -25 38
-2 18 -5 20 -15 8z"/>
<path d="M9540 1785 c-13 -16 -8 -18 28 -9 12 4 22 10 22 15 0 15 -37 10 -50
-6z"/>
<path d="M6472 1730 c0 -14 2 -19 5 -12 2 6 2 18 0 25 -3 6 -5 1 -5 -13z"/>
<path d="M7460 1721 c0 -17 5 -33 10 -36 6 -3 10 -25 10 -49 0 -49 18 -80 39
-67 11 7 11 17 -4 57 -9 27 -21 57 -26 66 -5 10 -9 27 -9 38 0 11 -4 20 -10
20 -5 0 -10 -13 -10 -29z"/>
<path d="M10470 1741 c0 -5 23 -17 50 -27 36 -13 52 -25 56 -41 5 -19 11 -22
33 -17 52 13 56 21 15 34 -21 7 -52 19 -69 28 -59 29 -65 32 -75 32 -5 0 -10
-4 -10 -9z"/>
<path d="M12390 1742 c0 -4 9 -15 20 -25 22 -19 29 0 8 21 -14 14 -28 16 -28
4z"/>
<path d="M11870 1717 c0 -8 -6 -27 -14 -43 -7 -16 -16 -51 -20 -77 -5 -44 -4
-48 13 -42 14 4 21 0 24 -12 4 -17 4 -17 12 1 5 11 3 21 -5 26 -9 6 -11 20 -6
51 18 104 18 109 7 109 -6 0 -11 -6 -11 -13z"/>
<path d="M12242 1710 c0 -14 2 -19 5 -12 2 6 2 18 0 25 -3 6 -5 1 -5 -13z"/>
<path d="M7135 1700 c3 -5 8 -10 11 -10 2 0 4 5 4 10 0 6 -5 10 -11 10 -5 0
-7 -4 -4 -10z"/>
<path d="M6480 1685 c0 -8 5 -15 10 -15 6 0 10 7 10 15 0 8 -4 15 -10 15 -5 0
-10 -7 -10 -15z"/>
<path d="M11366 1665 c4 -10 20 -15 45 -15 28 0 39 4 39 15 0 11 -12 15 -45
15 -35 0 -43 -3 -39 -15z"/>
<path d="M12238 1635 c-3 -43 -6 -50 -28 -56 -19 -5 -15 -7 20 -8 25 0 56 6
70 14 14 8 37 14 53 15 46 0 107 23 107 41 0 18 -31 19 -52 2 -7 -6 -41 -13
-75 -16 -61 -5 -62 -5 -77 26 l-15 31 -3 -49z"/>
<path d="M7090 1660 c-13 -8 -12 -10 3 -10 9 0 17 5 17 10 0 12 -1 12 -20 0z"/>
<path d="M8984 1649 c-10 -11 -25 -19 -33 -17 -23 3 -61 -20 -61 -37 0 -8 8
-15 18 -15 9 0 26 -7 36 -15 30 -22 38 -18 31 15 -5 23 -3 30 9 30 19 0 34
-22 18 -28 -15 -5 -16 -32 -2 -32 6 0 10 -4 10 -10 0 -5 -8 -10 -19 -10 -14 0
-17 -6 -13 -25 5 -28 -9 -33 -28 -9 -13 15 -50 38 -50 31 0 -9 38 -47 47 -47
6 0 16 -7 23 -15 7 -8 22 -15 34 -15 11 0 30 -7 40 -15 27 -21 53 -20 36 0 -7
8 -21 15 -31 15 -25 0 -24 17 0 25 25 8 30 23 35 108 3 40 3 62 0 50 -7 -29
-16 -29 -29 -1 -15 32 -49 41 -71 17z m46 -9 c0 -5 -4 -10 -10 -10 -5 0 -10 5
-10 10 0 6 5 10 10 10 6 0 10 -4 10 -10z m28 -78 c-2 -8 -8 -17 -14 -19 -13
-4 -27 24 -19 37 9 14 36 -1 33 -18z"/>
<path d="M10810 1660 c0 -5 9 -10 21 -10 11 0 17 5 14 10 -3 6 -13 10 -21 10
-8 0 -14 -4 -14 -10z"/>
<path d="M11213 1663 c-7 -2 -9 -11 -6 -19 6 -16 63 -20 63 -4 0 6 18 10 41
10 22 0 38 4 35 9 -6 9 -110 12 -133 4z"/>
<path d="M9137 1631 c2 -13 -3 -31 -12 -41 -25 -28 -15 -54 21 -58 28 -3 32 0
38 29 12 62 8 77 -18 72 -15 -3 -26 0 -29 9 -2 7 -2 2 0 -11z m23 -46 c0 -8
-7 -15 -15 -15 -9 0 -12 6 -9 15 4 8 10 15 15 15 5 0 9 -7 9 -15z"/>
<path d="M11117 1643 c7 -17 21 -16 40 2 13 14 12 15 -15 13 -20 -1 -28 -6
-25 -15z"/>
<path d="M11520 1641 c0 -11 4 -22 9 -26 5 -3 12 -18 16 -34 3 -15 14 -37 24
-48 11 -11 22 -29 25 -39 3 -10 3 0 0 24 -2 24 -8 51 -13 60 -5 9 -15 32 -21
50 -14 35 -40 44 -40 13z"/>
<path d="M6515 1640 c3 -5 8 -10 11 -10 2 0 4 5 4 10 0 6 -5 10 -11 10 -5 0
-7 -4 -4 -10z"/>
<path d="M11025 1640 c-3 -5 1 -10 9 -10 8 0 18 5 21 10 3 6 -1 10 -9 10 -8 0
-18 -4 -21 -10z"/>
<path d="M10087 1616 c-4 -10 -7 -25 -6 -34 0 -11 4 -9 10 7 5 13 8 29 6 35
-2 5 -6 2 -10 -8z"/>
<path d="M11270 1565 c0 -8 4 -15 10 -15 5 0 7 7 4 15 -4 8 -8 15 -10 15 -2 0
-4 -7 -4 -15z"/>
<path d="M7373 1546 c1 -11 9 -21 17 -23 10 -3 11 -2 4 4 -6 4 -14 15 -17 23
-5 11 -6 9 -4 -4z"/>
<path d="M10062 1540 c0 -14 2 -19 5 -12 2 6 2 18 0 25 -3 6 -5 1 -5 -13z"/>
<path d="M11351 1551 c-11 -7 -11 -13 3 -32 l16 -23 0 27 c0 15 5 27 10 27 6
0 10 -9 10 -19 0 -22 17 -37 28 -26 4 4 1 10 -5 12 -7 3 -13 13 -13 24 0 20
-25 25 -49 10z"/>
<path d="M12171 1544 c0 -11 3 -14 6 -6 3 7 2 16 -1 19 -3 4 -6 -2 -5 -13z"/>
<path d="M7710 1510 c0 -22 5 -40 10 -40 6 0 10 18 10 40 0 22 -4 40 -10 40
-5 0 -10 -18 -10 -40z"/>
<path d="M9181 1509 c-17 -15 -31 -33 -31 -38 0 -15 45 3 72 29 12 11 27 19
34 18 7 -2 14 1 16 6 2 5 -11 10 -29 11 -23 2 -40 -5 -62 -26z"/>
<path d="M11440 1522 c0 -12 19 -26 26 -19 2 2 -2 10 -11 17 -9 8 -15 8 -15 2z"/>
<path d="M9328 1484 c-7 -6 5 -43 38 -129 13 -33 24 -73 24 -90 0 -26 19 -76
20 -51 0 16 33 -19 46 -49 12 -28 13 -28 14 -6 0 22 -34 103 -86 202 -13 26
-24 54 -24 62 0 20 -26 68 -32 61z"/>
<path d="M9848 1473 c7 -3 16 -2 19 1 4 3 -2 6 -13 5 -11 0 -14 -3 -6 -6z"/>
<path d="M11340 1455 c0 -14 2 -25 4 -25 2 0 6 11 8 25 3 14 1 25 -3 25 -5 0
-9 -11 -9 -25z"/>
<path d="M11370 1470 c0 -5 4 -10 9 -10 6 0 13 5 16 10 3 6 -1 10 -9 10 -9 0
-16 -4 -16 -10z"/>
<path d="M11470 1465 c0 -8 5 -15 10 -15 6 0 10 7 10 15 0 8 -4 15 -10 15 -5
0 -10 -7 -10 -15z"/>
<path d="M7327 1463 c-4 -3 -7 -13 -7 -22 1 -13 3 -13 11 2 11 19 8 33 -4 20z"/>
<path d="M9890 1461 c0 -6 11 -11 25 -11 14 0 25 -4 25 -9 0 -5 9 -11 21 -14
11 -3 23 -14 26 -25 2 -11 16 -25 29 -31 27 -12 32 0 9 19 -8 7 -15 23 -15 35
0 19 -7 23 -42 28 -24 2 -51 8 -60 12 -11 4 -18 3 -18 -4z"/>
<path d="M9110 1439 c0 -5 5 -7 10 -4 6 3 10 8 10 11 0 2 -4 4 -10 4 -5 0 -10
-5 -10 -11z"/>
<path d="M10340 1424 c0 -8 5 -12 10 -9 6 3 10 10 10 16 0 5 -4 9 -10 9 -5 0
-10 -7 -10 -16z"/>
<path d="M7302 1408 c-3 -37 -23 -78 -39 -78 -15 0 -17 -16 -3 -25 6 -3 10
-28 10 -55 0 -27 4 -51 10 -55 5 -3 7 20 5 62 -4 51 -1 71 11 84 10 11 14 30
11 56 -2 25 -4 29 -5 11z"/>
<path d="M11440 1416 c0 -19 27 -46 46 -46 16 0 12 12 -14 43 -18 21 -32 22
-32 3z"/>
<path d="M10688 1403 c12 -2 30 -2 40 0 9 3 -1 5 -23 4 -22 0 -30 -2 -17 -4z"/>
<path d="M10772 1396 c28 -15 50 -20 78 -17 26 3 -10 18 -60 26 -44 6 -44 6
-18 -9z"/>
<path d="M11361 1394 c0 -11 3 -14 6 -6 3 7 2 16 -1 19 -3 4 -6 -2 -5 -13z"/>
<path d="M8730 1363 l1 -38 14 25 c19 33 19 50 0 50 -11 0 -15 -11 -15 -37z"/>
<path d="M10615 1390 c-3 -5 3 -10 14 -10 12 0 21 5 21 10 0 6 -6 10 -14 10
-8 0 -18 -4 -21 -10z"/>
<path d="M11770 1390 c0 -5 5 -10 10 -10 6 0 10 5 10 10 0 6 -4 10 -10 10 -5
0 -10 -4 -10 -10z"/>
<path d="M10563 1369 c-6 -6 -9 -18 -6 -25 4 -11 10 -9 24 7 11 12 19 24 19
26 0 8 -27 2 -37 -8z"/>
<path d="M10948 1368 c7 -7 13 -21 13 -32 1 -21 1 -21 6 -1 3 11 10 26 15 33
8 9 4 12 -18 12 -22 0 -25 -3 -16 -12z"/>
<path d="M10308 1362 c-11 -2 -18 -13 -18 -28 0 -33 26 -31 33 4 6 31 7 29
-15 24z"/>
<path d="M11070 1346 c26 -13 40 -12 40 5 0 5 -15 9 -32 9 l-33 0 25 -14z"/>
<path d="M10040 1341 c0 -6 3 -11 8 -11 4 0 13 -13 20 -29 7 -16 24 -42 38
-57 28 -33 51 -78 57 -114 l4 -25 2 26 c0 14 10 34 21 44 21 19 27 45 10 45
-5 0 -10 -4 -10 -10 0 -5 -16 -2 -35 8 -19 9 -35 24 -35 33 0 9 -11 25 -25 35
-14 10 -25 24 -25 30 0 6 -7 17 -15 24 -10 9 -15 9 -15 1z"/>
<path d="M11650 1331 c0 -24 12 -32 30 -21 11 7 11 11 1 24 -18 22 -31 20 -31
-3z"/>
<path d="M8048 1290 c2 -22 6 -40 8 -40 2 0 4 18 4 40 0 22 -3 40 -8 40 -4 0
-6 -18 -4 -40z"/>
<path d="M8710 1254 c0 -25 -5 -54 -10 -65 -6 -10 -14 -48 -17 -84 -3 -36 -10
-68 -14 -71 -5 -3 -9 -24 -9 -47 0 -63 18 -33 30 49 5 38 16 103 25 144 17 87
19 120 5 120 -5 0 -10 -21 -10 -46z"/>
<path d="M10610 1249 c0 -6 7 -17 16 -26 10 -10 13 -26 10 -47 -3 -17 -3 -25
0 -18 3 6 13 12 22 13 11 0 13 2 4 6 -10 4 -10 8 -1 20 10 12 7 19 -16 39 -32
27 -35 28 -35 13z"/>
<path d="M10806 1230 c2 -51 3 -55 13 -44 10 10 3 74 -8 74 -3 0 -5 -13 -5
-30z"/>
<path d="M10711 1214 c0 -11 3 -14 6 -6 3 7 2 16 -1 19 -3 4 -6 -2 -5 -13z"/>
<path d="M11670 1206 c0 -14 5 -28 10 -31 6 -3 11 -30 11 -58 1 -29 4 -43 6
-32 3 11 9 25 15 32 5 7 5 13 -1 17 -5 4 -13 27 -17 51 -7 48 -24 62 -24 21z"/>
<path d="M9082 1175 c0 -16 2 -22 5 -12 2 9 2 23 0 30 -3 6 -5 -1 -5 -18z"/>
<path d="M10690 1166 c0 -8 6 -21 14 -28 18 -18 29 -55 18 -62 -4 -2 -8 -24
-8 -48 1 -36 4 -43 23 -46 25 -4 47 -27 39 -40 -9 -15 -106 -14 -106 0 0 9 -3
9 -8 2 -19 -28 -68 -39 -152 -34 -47 3 -87 2 -88 -3 -2 -4 -8 -5 -13 -1 -5 3
-39 2 -74 -1 -60 -7 -65 -9 -65 -31 0 -15 -6 -24 -15 -24 -9 0 -15 10 -15 26
0 25 0 25 -77 23 -83 -2 -123 -14 -123 -36 0 -7 -10 -13 -22 -13 -21 0 -21 0
-2 15 17 13 14 14 -43 15 -50 0 -63 -3 -63 -15 0 -8 -7 -15 -15 -15 -8 0 -15
5 -15 10 0 13 -132 1 -141 -13 -4 -6 -9 -6 -13 1 -7 12 -364 6 -380 -6 -6 -5
-18 -9 -26 -9 -119 0 -495 -29 -512 -40 -4 -2 -67 -6 -140 -9 -143 -5 -194
-16 -202 -42 -5 -19 -19 -197 -20 -257 -1 -31 4 -41 18 -43 15 -3 16 -1 7 16
-17 31 -13 56 10 81 19 20 23 21 36 8 12 -12 13 -18 1 -37 -10 -18 -10 -24 0
-27 6 -3 12 -18 12 -34 0 -21 5 -29 18 -29 10 0 22 -4 28 -8 9 -8 57 -24 164
-56 65 -20 98 -42 84 -56 -6 -6 -29 0 -63 17 -29 15 -72 30 -94 34 -85 17
-156 35 -163 42 -14 14 -25 7 -19 -13 5 -15 3 -18 -9 -14 -11 4 -16 0 -16 -14
0 -11 5 -22 12 -24 8 -3 7 -11 -5 -28 -18 -25 -18 -25 -22 35 -1 17 -3 38 -4
48 0 9 -6 17 -12 17 -6 0 -9 -7 -5 -15 3 -8 2 -15 -3 -15 -4 0 -8 -83 -8 -185
-1 -186 10 -243 22 -117 8 80 21 126 40 142 20 17 38 2 31 -25 -9 -34 2 -53
35 -60 38 -9 37 -25 -6 -66 -19 -19 -35 -40 -35 -46 0 -24 29 -13 65 23 38 38
54 40 36 6 -20 -38 -14 -42 63 -42 67 0 77 3 112 31 48 38 50 42 59 154 7 90
36 178 72 217 28 31 65 22 98 -25 38 -53 55 -85 56 -106 0 -9 8 -29 18 -45 14
-24 30 -34 87 -49 38 -10 92 -22 121 -26 l51 -7 11 36 c5 19 17 70 26 113 9
42 21 77 26 77 15 0 10 26 -11 53 -29 37 -26 57 10 57 27 0 29 -2 18 -19 -9
-15 -8 -22 5 -36 20 -19 40 -11 33 13 -3 10 -1 24 4 32 8 12 10 11 10 -7 0
-30 14 -36 30 -12 8 10 20 19 27 19 7 0 18 8 25 19 11 18 13 18 61 1 27 -10
54 -26 60 -35 8 -15 11 -13 25 15 10 22 30 39 54 49 22 9 38 23 38 32 0 9 6
19 13 22 10 4 13 -2 9 -19 -5 -30 14 -32 38 -4 11 12 24 17 38 13 18 -4 22
-13 22 -44 0 -27 -4 -39 -14 -39 -9 0 -16 -12 -18 -27 -2 -21 -8 -27 -21 -25
-10 2 -25 -2 -32 -8 -12 -10 -12 -14 1 -28 14 -14 14 -16 0 -24 -9 -5 -16 -17
-16 -27 0 -26 -29 -35 -50 -16 -25 22 -30 19 -30 -20 0 -19 -4 -35 -10 -35
-15 0 -12 -63 5 -103 8 -20 15 -60 15 -90 0 -29 5 -58 12 -65 17 -17 175 -16
192 1 7 7 24 30 39 52 14 22 48 64 76 93 28 30 51 60 51 68 0 21 49 62 82 69
15 4 30 11 33 16 4 5 17 9 31 9 13 0 41 11 62 23 20 13 55 27 76 30 22 3 42
10 45 14 13 17 166 80 156 64 -3 -5 0 -13 8 -18 18 -12 40 -63 26 -63 -12 0
-8 -40 6 -73 5 -12 3 -17 -8 -17 -8 0 -17 6 -20 13 -7 18 -41 -31 -49 -73 -23
-104 -23 -100 5 -100 14 0 27 -5 29 -12 2 -6 10 -8 16 -4 15 9 16 112 2 121
-5 3 -10 15 -10 26 0 14 7 19 30 19 22 0 28 4 24 15 -7 18 7 20 24 3 10 -10
17 -10 32 0 10 6 27 9 37 5 17 -6 17 -6 1 10 -9 10 -21 17 -25 16 -4 -1 -21
-1 -38 0 -27 1 -28 3 -12 15 22 17 22 22 -3 29 -14 4 -18 10 -14 22 5 12 14
15 33 10 14 -3 44 -10 66 -14 92 -18 335 -109 335 -126 0 -7 -7 -26 -15 -41
-8 -16 -15 -38 -15 -50 0 -22 -47 -122 -67 -142 -7 -7 -13 -15 -13 -18 0 -2
105 -4 233 -4 l233 0 12 58 c7 32 12 104 12 160 0 56 5 134 10 174 9 64 30
398 34 543 l1 50 -70 -3 c-75 -3 -79 -1 -98 58 -3 8 -6 1 -6 -17 -1 -17 -4
-34 -8 -36 -31 -19 -305 -24 -311 -6 -2 5 -10 9 -18 9 -8 0 -14 9 -14 19 0 10
-7 22 -15 25 -9 3 -21 19 -26 35 -10 28 -36 48 -47 36 -3 -3 0 -16 6 -30 7
-15 8 -25 2 -25 -6 0 -10 -9 -10 -20 0 -10 -6 -23 -14 -27 -8 -4 -16 -17 -19
-28 -3 -11 -5 -2 -4 20 1 56 -10 71 -31 44 -13 -16 -24 -19 -44 -14 -37 9 -54
32 -42 53 5 9 7 35 4 57 -4 35 -9 40 -32 43 -20 2 -28 -1 -28 -12z m280 -202
c0 -2 -6 -1 -14 2 -15 6 -28 39 -18 48 4 5 32 -38 32 -50z m-165 26 c-3 -5
-10 -10 -16 -10 -5 0 -9 5 -9 10 0 6 7 10 16 10 8 0 12 -4 9 -10z m-1008 -162
c-3 -8 -6 -5 -6 6 -1 11 2 17 5 13 3 -3 4 -12 1 -19z m570 -40 c-3 -8 -6 -5
-6 6 -1 11 2 17 5 13 3 -3 4 -12 1 -19z m-70 -10 c-3 -8 -6 -5 -6 6 -1 11 2
17 5 13 3 -3 4 -12 1 -19z m257 7 c3 -8 1 -15 -4 -15 -6 0 -10 7 -10 15 0 8 2
15 4 15 2 0 6 -7 10 -15z m-724 -19 c0 -8 -4 -18 -10 -21 -5 -3 -10 3 -10 14
0 12 5 21 10 21 6 0 10 -6 10 -14z m130 -1 c0 -8 -4 -15 -10 -15 -5 0 -10 7
-10 15 0 8 5 15 10 15 6 0 10 -7 10 -15z m-350 -5 c0 -5 7 -10 15 -10 8 0 15
-7 15 -15 0 -8 -7 -15 -15 -15 -8 0 -15 7 -15 15 0 8 -4 15 -10 15 -5 0 -10 5
-10 10 0 6 5 10 10 10 6 0 10 -4 10 -10z m400 -25 c0 -8 -4 -15 -10 -15 -5 0
-10 -7 -10 -17 0 -9 -3 -14 -6 -10 -9 9 5 57 16 57 6 0 10 -7 10 -15z m-1320
-10 c0 -8 -7 -15 -15 -15 -8 0 -15 7 -15 15 0 8 7 15 15 15 8 0 15 -7 15 -15z
m1170 -10 c0 -25 -14 -34 -24 -16 -8 12 3 41 15 41 5 0 9 -11 9 -25z m-1314
-1 c-9 -8 -20 -12 -26 -9 -19 12 -10 25 16 25 23 0 24 -1 10 -16z m1222 -16
c-5 -32 -28 -35 -28 -4 0 17 5 26 16 26 10 0 14 -7 12 -22z m-528 -18 c0 -5
-5 -10 -11 -10 -5 0 -7 5 -4 10 3 6 8 10 11 10 2 0 4 -4 4 -10z m-645 -30 c-5
-8 -11 -8 -17 -2 -6 6 -7 16 -3 22 5 8 11 8 17 2 6 -6 7 -16 3 -22z m1472 8
c-3 -8 -6 -5 -6 6 -1 11 2 17 5 13 3 -3 4 -12 1 -19z m-57 -19 c0 -17 12 -23
48 -22 6 1 12 -2 12 -7 0 -12 -47 -29 -99 -36 l-50 -6 11 30 c10 26 16 30 35
26 20 -5 23 -2 23 21 0 15 4 24 10 20 6 -3 10 -15 10 -26z m-732 -6 c-4 -22
-22 -20 -26 1 -2 10 3 16 13 16 10 0 15 -7 13 -17z m409 -55 c-2 -13 -4 -5 -4
17 -1 22 1 32 4 23 2 -10 2 -28 0 -40z m-343 -13 c-35 -27 -43 -16 -22 29 11
26 11 26 26 5 12 -18 12 -22 -4 -34z m996 30 c0 -8 -4 -15 -10 -15 -5 0 -10 7
-10 15 0 8 5 15 10 15 6 0 10 -7 10 -15z m-884 -42 c-11 -11 -19 6 -11 24 8
17 8 17 12 0 3 -10 2 -21 -1 -24z m-832 12 c-6 -16 -24 -21 -24 -7 0 11 11 22
21 22 5 0 6 -7 3 -15z m786 0 c0 -8 -7 -15 -15 -15 -9 0 -12 6 -9 15 4 8 10
15 15 15 5 0 9 -7 9 -15z m684 0 c3 -10 16 -15 32 -13 40 4 40 -19 0 -26 -37
-7 -86 10 -86 30 0 24 45 31 54 9z m96 -25 c0 -5 -4 -10 -10 -10 -5 0 -10 5
-10 10 0 6 5 10 10 10 6 0 10 -4 10 -10z m70 0 c0 -5 -4 -10 -10 -10 -5 0 -10
5 -10 10 0 6 5 10 10 10 6 0 10 -4 10 -10z m-1500 -40 c0 -13 -7 -20 -20 -20
-21 0 -60 -33 -60 -50 0 -12 -27 -13 -34 -1 -9 13 4 41 18 41 7 0 23 11 36 25
29 31 60 33 60 5z m1335 -110 c-3 -5 -13 -10 -21 -10 -8 0 -14 5 -14 10 0 6 9
10 21 10 11 0 17 -4 14 -10z m156 -20 c22 12 26 -2 5 -19 -19 -16 -46 -3 -46
23 1 19 2 19 11 3 8 -13 14 -15 30 -7z m-1546 -184 c-16 -78 -49 -156 -65
-156 -16 0 -11 56 5 70 8 7 15 27 15 46 0 18 5 36 10 39 6 3 10 18 10 32 0 22
2 24 15 13 11 -9 14 -22 10 -44z"/>
<path d="M10820 1160 c-6 -11 -19 -19 -28 -18 -31 6 -23 -27 12 -46 32 -17 36
-17 51 -2 15 14 15 19 -1 51 -9 19 -18 35 -20 35 -2 0 -8 -9 -14 -20z"/>
<path d="M11011 1164 c0 -11 3 -14 6 -6 3 7 2 16 -1 19 -3 4 -6 -2 -5 -13z"/>
<path d="M10950 1146 c0 -8 5 -18 10 -21 6 -3 10 3 10 14 0 12 -4 21 -10 21
-5 0 -10 -6 -10 -14z"/>
<path d="M7660 1136 c0 -8 5 -18 10 -21 6 -3 10 3 10 14 0 12 -4 21 -10 21 -5
0 -10 -6 -10 -14z"/>
<path d="M8870 1131 c-15 -28 -13 -33 11 -26 13 4 27 0 40 -11 17 -16 19 -16
19 -1 0 10 -6 17 -14 17 -7 0 -16 9 -19 20 -7 25 -23 26 -37 1z"/>
<path d="M11070 1140 c0 -5 5 -10 10 -10 6 0 10 5 10 10 0 6 -4 10 -10 10 -5
0 -10 -4 -10 -10z"/>
<path d="M11820 1135 c0 -8 7 -15 15 -15 8 0 15 7 15 15 0 8 -7 15 -15 15 -8
0 -15 -7 -15 -15z"/>
<path d="M6572 1110 c0 -14 2 -19 5 -12 2 6 2 18 0 25 -3 6 -5 1 -5 -13z"/>
<path d="M9050 1085 c-11 -21 -11 -32 0 -65 7 -22 18 -40 23 -40 5 0 6 10 2
23 -10 30 -10 47 -2 80 9 34 -5 35 -23 2z"/>
<path d="M9487 1083 c-4 -3 -7 -22 -7 -42 l0 -36 15 29 c22 42 16 74 -8 49z"/>
<path d="M6587 1073 c-11 -10 -8 -51 3 -58 6 -4 10 8 10 29 0 37 -2 41 -13 29z"/>
<path d="M10641 1014 c0 -11 3 -14 6 -6 3 7 2 16 -1 19 -3 4 -6 -2 -5 -13z"/>
<path d="M12372 1005 c0 -16 2 -22 5 -12 2 9 2 23 0 30 -3 6 -5 -1 -5 -18z"/>
<path d="M8423 1003 c-15 -5 -18 -33 -4 -33 8 0 25 30 19 35 -2 1 -9 0 -15 -2z"/>
<path d="M10132 965 c-11 -13 -10 -15 7 -15 11 0 22 -6 24 -12 3 -7 6 -1 6 15
1 30 -16 35 -37 12z"/>
<path d="M11570 937 c0 -20 -4 -46 -10 -59 -5 -13 -14 -124 -20 -248 -14 -272
-27 -472 -36 -562 l-6 -68 101 0 c112 0 120 5 76 56 -26 30 -33 68 -15 79 17
10 11 35 -7 35 -11 0 -14 3 -7 8 12 8 12 88 0 139 l-8 33 81 0 c65 0 81 3 81
15 0 11 -12 15 -44 15 -23 0 -57 5 -75 11 -31 11 -31 11 -31 85 0 61 -3 72
-15 68 -17 -7 -21 11 -5 21 15 9 12 32 -7 51 -17 17 -15 17 32 12 28 -3 43 -4
34 -1 -17 4 -44 53 -30 53 5 0 9 27 10 61 0 50 -2 60 -14 55 -13 -5 -15 6 -9
73 7 78 6 78 -19 85 -14 3 -32 9 -41 12 -13 5 -16 -1 -16 -29z m80 -161 c0 -2
-7 -9 -15 -16 -12 -10 -15 -10 -15 4 0 9 7 16 15 16 8 0 15 -2 15 -4z"/>
<path d="M9740 942 c0 -4 22 -7 50 -7 27 0 50 3 50 8 0 4 -22 7 -50 7 -27 0
-50 -3 -50 -8z"/>
<path d="M7680 930 c0 -5 17 -10 38 -10 28 0 46 -8 76 -35 35 -31 66 -45 66
-30 0 17 -68 65 -99 70 -20 4 -46 8 -58 11 -13 2 -23 0 -23 -6z"/>
<path d="M9977 934 c-4 -4 -4 -10 -1 -15 6 -10 34 0 34 12 0 10 -24 12 -33 3z"/>
<path d="M9510 914 c0 -10 7 -14 22 -12 32 5 35 28 4 28 -17 0 -26 -5 -26 -16z"/>
<path d="M8657 903 c-4 -3 -7 -15 -7 -26 0 -16 3 -17 15 -7 8 7 15 19 15 26 0
15 -12 19 -23 7z"/>
<path d="M9460 891 c0 -5 -6 -11 -12 -14 -7 -2 -2 -2 12 0 34 6 50 23 22 23
-12 0 -22 -4 -22 -9z"/>
<path d="M12122 880 c0 -14 2 -19 5 -12 2 6 2 18 0 25 -3 6 -5 1 -5 -13z"/>
<path d="M12070 846 c0 -9 5 -16 10 -16 6 0 10 4 10 9 0 6 -4 13 -10 16 -5 3
-10 -1 -10 -9z"/>
<path d="M7940 790 c0 -5 4 -10 9 -10 6 0 13 5 16 10 3 6 -1 10 -9 10 -9 0
-16 -4 -16 -10z"/>
<path d="M7916 725 c-13 -30 -25 -45 -37 -45 -13 0 -20 -11 -25 -37 -4 -21
-10 -42 -14 -48 -4 -5 -10 -23 -13 -40 -3 -16 -9 -42 -13 -57 -4 -18 -2 -28 5
-28 6 0 11 11 11 24 0 14 4 27 9 30 4 3 11 24 15 46 6 36 47 116 66 130 8 5
24 70 18 70 -2 0 -12 -20 -22 -45z"/>
<path d="M7315 740 c-3 -6 1 -13 10 -16 19 -8 30 0 20 15 -8 14 -22 14 -30 1z"/>
<path d="M7193 723 c-13 -2 -23 -9 -23 -14 0 -14 30 -11 46 6 9 8 12 14 7 14
-4 -1 -18 -4 -30 -6z"/>
<path d="M7363 703 c-15 -5 -18 -33 -4 -33 5 0 12 -16 15 -35 4 -21 13 -35 21
-35 20 0 19 15 -1 35 -10 10 -14 24 -10 40 6 25 -1 35 -21 28z"/>
<path d="M11913 623 c-20 -7 -15 -23 6 -23 10 0 21 7 25 15 5 15 -7 18 -31 8z"/>
<path d="M7421 584 c0 -11 3 -14 6 -6 3 7 2 16 -1 19 -3 4 -6 -2 -5 -13z"/>
<path d="M11789 587 c7 -9 27 -17 44 -17 40 0 24 17 -23 26 -32 7 -34 6 -21
-9z"/>
<path d="M6678 545 c-3 -15 -1 -25 6 -25 6 0 12 11 12 25 2 32 -12 32 -18 0z"/>
<path d="M28 523 c7 -3 16 -2 19 1 4 3 -2 6 -13 5 -11 0 -14 -3 -6 -6z"/>
<path d="M3690 253 c0 -162 4 -253 10 -253 13 0 13 469 0 490 -6 10 -10 -71
-10 -237z"/>
<path d="M7460 490 c0 -5 5 -10 10 -10 6 0 10 5 10 10 0 6 -4 10 -10 10 -5 0
-10 -4 -10 -10z"/>
<path d="M31 471 c-27 -7 -41 -31 -19 -31 17 0 55 26 48 33 -3 2 -16 1 -29 -2z"/>
<path d="M6720 472 c0 -12 34 -42 48 -42 16 0 15 6 -5 30 -18 20 -43 27 -43
12z"/>
<path d="M7563 473 c9 -2 23 -2 30 0 6 3 -1 5 -18 5 -16 0 -22 -2 -12 -5z"/>
<path d="M7910 435 c0 -8 -6 -15 -13 -15 -7 0 -18 -21 -25 -46 -11 -40 -10
-49 2 -63 9 -9 13 -26 11 -36 -3 -11 1 -54 8 -95 12 -68 15 -73 26 -53 8 16 8
23 1 23 -6 0 -8 5 -5 11 4 6 14 8 22 5 9 -4 21 1 29 11 16 21 19 77 4 68 -5
-3 -10 -17 -10 -31 0 -15 -6 -24 -15 -24 -8 0 -15 6 -15 14 0 8 -6 16 -12 19
-7 2 -6 3 3 2 21 -3 30 34 24 99 -2 25 1 46 6 46 5 0 9 18 9 40 0 36 -2 40
-25 40 -16 0 -25 -6 -25 -15z m0 -112 c0 -21 -3 -24 -9 -14 -5 8 -7 20 -4 28
8 21 13 15 13 -14z"/>
<path d="M7646 415 c4 -8 8 -15 10 -15 2 0 4 7 4 15 0 8 -4 15 -10 15 -5 0 -7
-7 -4 -15z"/>
<path d="M8288 344 c-20 -38 -22 -54 -10 -54 10 0 38 78 31 84 -2 2 -12 -11
-21 -30z"/>
<path d="M11941 363 c-1 -8 -16 -13 -38 -14 l-38 -1 40 -8 c22 -4 49 -4 60 1
16 6 16 8 3 8 -9 1 -19 7 -21 14 -4 10 -6 10 -6 0z"/>
<path d="M6965 350 c-8 -13 9 -20 24 -11 10 6 9 10 -3 14 -8 3 -18 2 -21 -3z"/>
<path d="M115 340 c-8 -13 -1 -24 14 -19 6 3 7 10 2 18 -6 10 -10 10 -16 1z"/>
<path d="M3726 274 c-3 -43 -6 -121 -6 -176 0 -84 2 -98 16 -98 15 0 16 17 9
173 -4 94 -8 173 -10 175 -1 1 -5 -32 -9 -74z"/>
<path d="M12557 322 c-12 -2 -16 -9 -13 -19 3 -8 6 -29 7 -46 l1 -32 14 34
c19 42 15 68 -9 63z"/>
<path d="M7815 311 c-3 -5 -1 -12 5 -16 5 -3 10 1 10 9 0 18 -6 21 -15 7z"/>
<path d="M6900 291 c0 -12 5 -21 10 -21 6 0 10 6 10 14 0 8 -4 18 -10 21 -5 3
-10 -3 -10 -14z"/>
<path d="M12347 303 c-16 -3 -26 -10 -24 -16 6 -19 30 -18 57 3 25 20 22 21
-33 13z"/>
<path d="M11932 280 c-6 -11 -12 -39 -12 -62 0 -52 -22 -117 -55 -166 -14 -20
-25 -40 -25 -44 0 -5 36 -8 81 -8 l80 0 -27 35 c-22 29 -24 38 -14 50 7 8 19
15 26 15 8 0 14 5 14 10 0 6 9 10 20 10 14 0 20 -7 20 -21 0 -12 4 -18 11 -13
17 10 109 12 115 2 3 -4 16 -8 29 -8 13 0 27 -4 30 -10 18 -29 26 -2 24 88 0
53 1 103 2 111 2 8 -4 17 -13 19 -15 3 -18 -4 -18 -47 0 -47 -12 -72 -24 -52
-4 5 -26 8 -51 6 -25 -1 -45 1 -45 6 0 5 5 9 10 9 16 0 12 28 -7 50 -21 24
-33 26 -33 5 0 -8 5 -15 12 -15 6 0 1 -8 -10 -19 -12 -10 -22 -26 -22 -35 0
-9 -6 -16 -14 -16 -9 0 -16 17 -20 45 -10 64 -58 96 -84 55z m-5 -236 c11 -23
10 -24 -10 -18 -29 9 -29 8 -21 28 9 22 17 20 31 -10z"/>
<path d="M10789 256 c4 -11 17 -25 29 -31 12 -5 27 -23 33 -40 7 -16 18 -37
26 -46 11 -13 11 -26 4 -60 -6 -24 -11 -52 -11 -61 0 -23 32 -23 52 0 24 27
51 90 43 102 -3 5 0 13 8 16 21 8 29 44 11 51 -8 3 -14 13 -12 22 4 25 -11 41
-38 41 -14 0 -33 4 -42 9 -9 4 -38 11 -64 13 -44 5 -46 4 -39 -16z m156 -156
c-3 -5 -11 -10 -16 -10 -6 0 -7 5 -4 10 3 6 11 10 16 10 6 0 7 -4 4 -10z"/>
<path d="M7720 256 c0 -8 5 -18 10 -21 6 -3 10 3 10 14 0 12 -4 21 -10 21 -5
0 -10 -6 -10 -14z"/>
<path d="M8022 200 c-7 -11 -19 -20 -27 -20 -8 0 -15 -7 -15 -15 0 -8 -4 -15
-8 -15 -8 0 -42 -52 -42 -64 0 -12 17 -6 38 14 12 12 22 32 22 45 0 29 8 32
25 8 11 -15 13 -15 24 5 6 12 17 20 24 18 6 -1 9 -1 5 1 -5 3 -8 13 -8 24 0
25 -22 24 -38 -1z"/>
<path d="M9010 175 c0 -8 5 -15 10 -15 6 0 10 7 10 15 0 8 -4 15 -10 15 -5 0
-10 -7 -10 -15z"/>
<path d="M7250 158 c0 -34 64 -152 84 -156 14 -3 15 0 8 15 -6 10 -18 38 -27
63 -34 90 -65 127 -65 78z"/>
<path d="M7600 131 c0 -18 12 -41 21 -41 15 0 10 37 -6 44 -8 3 -15 1 -15 -3z"/>
<path d="M9490 115 c-11 -13 -9 -15 15 -15 16 0 25 5 23 12 -7 19 -24 20 -38
3z"/>
<path d="M165 110 c-7 -11 21 -50 36 -50 11 0 -5 53 -18 57 -6 2 -14 -1 -18
-7z"/>
<path d="M9325 86 c-28 -32 -36 -46 -40 -65 -3 -18 1 -21 36 -21 21 0 39 5 39
10 0 6 7 10 15 10 9 0 18 7 21 15 4 8 10 13 14 10 9 -6 58 31 50 38 -10 9 -90
15 -90 6 0 -12 -27 -12 -32 0 -1 5 -7 4 -13 -3z m55 -26 c0 -5 -4 -10 -10 -10
-5 0 -10 5 -10 10 0 6 5 10 10 10 6 0 10 -4 10 -10z"/>
<path d="M8480 64 c0 -31 23 -28 28 4 2 15 -2 22 -12 22 -11 0 -16 -9 -16 -26z"/>
<path d="M10515 80 c-3 -5 1 -10 9 -10 9 0 16 5 16 10 0 6 -4 10 -9 10 -6 0
-13 -4 -16 -10z"/>
<path d="M1661 53 c-16 -17 -30 -23 -46 -19 -15 4 -31 -1 -46 -14 l-24 -19 45
-1 c50 0 105 34 99 61 -3 13 -9 11 -28 -8z"/>
<path d="M8026 63 c-3 -10 -9 -24 -12 -30 -3 -7 -1 -13 4 -13 5 0 13 12 16 26
8 30 2 44 -8 17z"/>
<path d="M11995 70 c3 -5 10 -10 16 -10 5 0 9 5 9 10 0 6 -7 10 -16 10 -8 0
-12 -4 -9 -10z"/>
<path d="M12263 49 c-11 -28 -10 -30 10 -27 16 2 22 10 22 27 0 36 -19 36 -32
0z"/>
<path d="M7630 60 c0 -5 5 -10 10 -10 6 0 10 5 10 10 0 6 -4 10 -10 10 -5 0
-10 -4 -10 -10z"/>
<path d="M2232 25 c0 -17 2 -22 5 -12 2 9 2 23 0 30 -3 6 -5 -1 -5 -18z"/>
<path d="M9229 34 c-7 -9 -22 -20 -34 -24 -15 -7 -10 -9 23 -9 23 -1 42 3 42
8 0 5 3 16 6 25 8 21 -19 21 -37 0z"/>
<path d="M7900 35 c0 -18 19 -40 26 -32 4 4 0 15 -9 24 -9 10 -17 13 -17 8z"/>
<path d="M6685 20 c3 -5 8 -10 11 -10 2 0 4 5 4 10 0 6 -5 10 -11 10 -5 0 -7
-4 -4 -10z"/>
<path d="M7596 15 c-3 -8 -1 -15 4 -15 6 0 10 7 10 15 0 19 -6 19 -14 0z"/>
</g>
</svg>
